<?xml version="1.0" encoding="iso-8859-1"?>
<!-- Uploaded to: SVG Repo, www.svgrepo.com, Generator: SVG Repo Mixer Tools -->
<svg fill="#000000" height="800px" width="800px" version="1.1" id="Layer_1" xmlns="http://www.w3.org/2000/svg" xmlns:xlink="http://www.w3.org/1999/xlink" 
	 viewBox="0 0 512 512" xml:space="preserve">
<g>
	<g>
		<g>
			<path d="M483.085,0.316c-5.776-1.424-11.611,2.106-13.034,7.88c-7.51,30.48-22.387,58.577-43.229,81.903l-34.234-34.234
				c-4.205-4.206-11.022-4.206-15.232-0.001l-50.581,50.579c-28.576-13.826-60.13-21.138-92.811-21.138
				c-56.988,0-110.564,22.191-150.86,62.488c-83.182,83.183-83.182,218.535,0,301.72C123.402,489.808,176.977,512,233.965,512
				c56.986,0,110.564-22.191,150.86-62.489c65.776-65.778,79.525-164.171,41.277-243.6l50.652-50.651
				c2.019-2.019,3.153-4.759,3.153-7.615c0-2.855-1.134-5.595-3.153-7.614l-34.682-34.684
				c23.608-26.119,40.446-57.702,48.895-91.998C492.388,7.573,488.861,1.738,483.085,0.316z M369.596,434.281
				c-36.229,36.228-84.396,56.179-135.629,56.179c-51.233,0-99.401-19.951-135.629-56.179c-74.785-74.786-74.785-196.473,0-271.259
				c36.229-36.228,84.396-56.179,135.629-56.179c31.649,0,62.127,7.623,89.344,21.985c0.366,0.22,0.741,0.417,1.123,0.589
				c16.413,8.801,31.621,20.065,45.162,33.605C444.378,237.809,444.378,359.495,369.596,434.281z M453.908,147.646l-38.591,38.591
				c-8.477-13.671-18.635-26.589-30.491-38.444c-11.752-11.753-24.643-21.954-38.412-30.526l38.559-38.556l34.464,34.464
				c0,0.001,0,0.002,0.002,0.003c0,0,0.002,0.001,0.002,0.002L453.908,147.646z"/>
			<path d="M74.036,287.583c-5.946,0-10.77,4.822-10.77,10.77v0.299c0,5.947,4.824,10.77,10.77,10.77
				c5.948,0,10.77-4.823,10.77-10.77v-0.299C84.806,292.405,79.985,287.583,74.036,287.583z"/>
			<path d="M393.897,309.721c5.946,0,10.77-4.822,10.77-10.77v-0.298c0-5.948-4.824-10.77-10.77-10.77
				c-5.948,0-10.77,4.822-10.77,10.77v0.298C383.127,304.901,387.949,309.721,393.897,309.721z"/>
			<path d="M113.262,177.95c-24.352,24.356-40.612,55.117-47.019,88.956c-1.106,5.845,2.734,11.479,8.578,12.587
				c0.677,0.127,1.351,0.19,2.015,0.19c5.074,0,9.592-3.601,10.57-8.769c5.599-29.57,19.807-56.449,41.087-77.733
				c4.207-4.207,4.207-11.025,0-15.232C124.288,173.742,117.466,173.743,113.262,177.95z"/>
			<path d="M233.966,447.813c-5.946,0-10.77,4.823-10.77,10.77c0,5.948,4.824,10.77,10.77,10.77
				c81.944,0,152.48-58.438,167.721-138.953c1.106-5.845-2.734-11.479-8.578-12.586c-5.844-1.101-11.479,2.734-12.586,8.579
				C367.206,396.748,305.57,447.813,233.966,447.813z"/>
		</g>
	</g>
</g>
</svg>